<svg xmlns="http://www.w3.org/2000/svg" width="1080" height="1440" viewBox="0 0 1080 1440"><rect width="1080" height="1440" fill="#eaece5"/><g font-family="PingFang SC, Noto Sans CJK SC, sans-serif" fill="#243d35"><text x="86" y="104" font-size="26" letter-spacing="4">AI 与组织 · 样式演示</text><text x="86" y="250" font-size="100" font-weight="900" fill="#243d35">高频反馈</text><text x="86" y="375" font-size="100" font-weight="900" fill="#638270">怎样训练组织</text><text x="86" y="530" font-size="34">数据、决策、反馈，怎样形成闭环？</text><defs><marker id="a" viewBox="0 0 10 10" refX="8" refY="5" markerWidth="6" markerHeight="6" orient="auto"><path d="M0 0L10 5L0 10Z" fill="#638270"/></marker></defs><g stroke="#638270" stroke-width="5" fill="none" marker-end="url(#a)"><path d="M350 810H700"/><path d="M820 915Q820 1140 640 1140"/><path d="M400 1140Q230 1140 230 915"/></g><g fill="#fffdf5" stroke="#c4cec3" stroke-width="2"><rect x="100" y="730" width="280" height="180" rx="22"/><rect x="700" y="730" width="280" height="180" rx="22"/><rect x="400" y="1050" width="280" height="180" rx="22"/></g><g font-size="52" text-anchor="middle"><text x="240" y="840">数据</text><text x="840" y="840">决策</text><text x="540" y="1160">反馈</text></g><path d="M86 1320H994" stroke="#243d35" opacity=".22"/><text x="86" y="1370" font-size="25">概念排版样张</text><text x="994" y="1370" text-anchor="end" font-size="25">3 : 4</text></g></svg>