<svg xmlns="http://www.w3.org/2000/svg" width="1080" height="1440" viewBox="0 0 1080 1440"><rect x="0" y="0" width="1080" height="1440" rx="0" fill="#eef0e6"/><text x="88" y="104" font-family="PingFang SC, Noto Sans CJK SC, sans-serif" font-size="25" font-weight="500" fill="#2a4237" text-anchor="start">AI 与组织 / 封面样式</text><path d="M88 140L992 140" stroke="#2a4237" stroke-width="1" fill="none"/><text x="88" y="248" font-family="PingFang SC, Noto Sans CJK SC, sans-serif" font-size="100" font-weight="900" fill="#2a4237" text-anchor="start">人人拥有</text><text x="88" y="370" font-family="PingFang SC, Noto Sans CJK SC, sans-serif" font-size="100" font-weight="900" fill="#47796d" text-anchor="start">专家团</text><text x="88" y="550" font-family="PingFang SC, Noto Sans CJK SC, sans-serif" font-size="33" font-weight="500" fill="#2a4237" text-anchor="start">知识服务，能更贴近每个人吗？</text><circle cx="540" cy="985" r="105" fill="#315d54"/><text x="540" y="1004" font-family="PingFang SC, Noto Sans CJK SC, sans-serif" font-size="44" font-weight="700" fill="#fff7e9" text-anchor="middle">个人</text><path d="M540 985L240 780" stroke="#83998a" stroke-width="4" fill="none"/><circle cx="240" cy="780" r="77" fill="#c6d4c4"/><rect x="213" y="745" width="54" height="70" rx="4" fill="#edf2e8"/><path d="M540 985L840 780" stroke="#83998a" stroke-width="4" fill="none"/><circle cx="840" cy="780" r="77" fill="#c6d4c4"/><rect x="813" y="745" width="54" height="70" rx="4" fill="#edf2e8"/><path d="M540 985L240 1170" stroke="#83998a" stroke-width="4" fill="none"/><circle cx="240" cy="1170" r="77" fill="#c6d4c4"/><rect x="213" y="1135" width="54" height="70" rx="4" fill="#edf2e8"/><path d="M540 985L840 1170" stroke="#83998a" stroke-width="4" fill="none"/><circle cx="840" cy="1170" r="77" fill="#c6d4c4"/><rect x="813" y="1135" width="54" height="70" rx="4" fill="#edf2e8"/><path d="M88 1320L992 1320" stroke="#2a4237" stroke-width="1" fill="none"/><text x="88" y="1370" font-family="PingFang SC, Noto Sans CJK SC, sans-serif" font-size="23" font-weight="500" fill="#2a4237" text-anchor="start">概念排版 · 文案依据现有内容记录</text><text x="992" y="1370" font-family="PingFang SC, Noto Sans CJK SC, sans-serif" font-size="23" font-weight="500" fill="#2a4237" text-anchor="end">3:4</text></svg>