<svg xmlns="http://www.w3.org/2000/svg" width="1080" height="1440" viewBox="0 0 1080 1440"><rect x="0" y="0" width="1080" height="1440" rx="0" fill="#e9e8df"/><text x="88" y="104" font-family="PingFang SC, Noto Sans CJK SC, sans-serif" font-size="25" font-weight="500" fill="#283c32" text-anchor="start">AI 与组织 / 封面样式</text><path d="M88 140L992 140" stroke="#283c32" stroke-width="1" fill="none"/><text x="88" y="248" font-family="PingFang SC, Noto Sans CJK SC, sans-serif" font-size="100" font-weight="900" fill="#283c32" text-anchor="start">知识库怎样</text><text x="88" y="370" font-family="PingFang SC, Noto Sans CJK SC, sans-serif" font-size="100" font-weight="900" fill="#548164" text-anchor="start">持续产生洞察</text><text x="88" y="550" font-family="PingFang SC, Noto Sans CJK SC, sans-serif" font-size="33" font-weight="500" fill="#283c32" text-anchor="start">文件存进去之后，洞察从哪里来？</text><rect x="110" y="760" width="800" height="420" rx="18" fill="#e0e4d7"/><rect x="138" y="734" width="800" height="420" rx="18" fill="#e0e4d7"/><rect x="166" y="708" width="800" height="420" rx="18" fill="#e0e4d7"/><rect x="194" y="682" width="800" height="420" rx="18" fill="#fffaf0"/><rect x="194" y="682" width="190" height="44" rx="8" fill="#598269"/><text x="220" y="818" font-family="PingFang SC, Noto Sans CJK SC, sans-serif" font-size="42" font-weight="500" fill="#273a34" text-anchor="start">知识不是存进去就结束</text><path d="M220 878L880 878" stroke="#bcc5b6" stroke-width="2" fill="none"/><text x="220" y="947" font-family="PingFang SC, Noto Sans CJK SC, sans-serif" font-size="43" font-weight="700" fill="#3e6c52" text-anchor="start">内容 → 关联 → 洞察</text><text x="220" y="1080" font-family="PingFang SC, Noto Sans CJK SC, sans-serif" font-size="32" font-weight="500" fill="#273a34" text-anchor="start">持续更新与重新理解</text><path d="M88 1320L992 1320" stroke="#283c32" stroke-width="1" fill="none"/><text x="88" y="1370" font-family="PingFang SC, Noto Sans CJK SC, sans-serif" font-size="23" font-weight="500" fill="#283c32" text-anchor="start">概念排版 · 文案依据现有内容记录</text><text x="992" y="1370" font-family="PingFang SC, Noto Sans CJK SC, sans-serif" font-size="23" font-weight="500" fill="#283c32" text-anchor="end">3:4</text></svg>