<svg xmlns="http://www.w3.org/2000/svg" width="1080" height="1920" viewBox="0 0 1080 1920" role="img" aria-label="科技演示窗版式样张"><defs><linearGradient id="shade" x2="0" y2="1"><stop stop-color="#000" stop-opacity=".85"/><stop offset=".55" stop-color="#000" stop-opacity="0"/><stop offset="1" stop-color="#000" stop-opacity=".9"/></linearGradient></defs><rect x="0" y="0" width="1080" height="1920" rx="0" fill="#0b1833" /><path d="M 0 0 H 1080" stroke="#6ccbdc" stroke-opacity=".08"/><path d="M 0 100 H 1080" stroke="#6ccbdc" stroke-opacity=".08"/><path d="M 0 200 H 1080" stroke="#6ccbdc" stroke-opacity=".08"/><path d="M 0 300 H 1080" stroke="#6ccbdc" stroke-opacity=".08"/><path d="M 0 400 H 1080" stroke="#6ccbdc" stroke-opacity=".08"/><path d="M 0 500 H 1080" stroke="#6ccbdc" stroke-opacity=".08"/><path d="M 0 600 H 1080" stroke="#6ccbdc" stroke-opacity=".08"/><path d="M 0 700 H 1080" stroke="#6ccbdc" stroke-opacity=".08"/><path d="M 0 800 H 1080" stroke="#6ccbdc" stroke-opacity=".08"/><path d="M 0 900 H 1080" stroke="#6ccbdc" stroke-opacity=".08"/><path d="M 0 1000 H 1080" stroke="#6ccbdc" stroke-opacity=".08"/><path d="M 0 1100 H 1080" stroke="#6ccbdc" stroke-opacity=".08"/><path d="M 0 1200 H 1080" stroke="#6ccbdc" stroke-opacity=".08"/><path d="M 0 1300 H 1080" stroke="#6ccbdc" stroke-opacity=".08"/><path d="M 0 1400 H 1080" stroke="#6ccbdc" stroke-opacity=".08"/><path d="M 0 1500 H 1080" stroke="#6ccbdc" stroke-opacity=".08"/><path d="M 0 1600 H 1080" stroke="#6ccbdc" stroke-opacity=".08"/><path d="M 0 1700 H 1080" stroke="#6ccbdc" stroke-opacity=".08"/><path d="M 0 1800 H 1080" stroke="#6ccbdc" stroke-opacity=".08"/><path d="M 0 1900 H 1080" stroke="#6ccbdc" stroke-opacity=".08"/><path d="M 0 0 V 1920" stroke="#6ccbdc" stroke-opacity=".08"/><path d="M 100 0 V 1920" stroke="#6ccbdc" stroke-opacity=".08"/><path d="M 200 0 V 1920" stroke="#6ccbdc" stroke-opacity=".08"/><path d="M 300 0 V 1920" stroke="#6ccbdc" stroke-opacity=".08"/><path d="M 400 0 V 1920" stroke="#6ccbdc" stroke-opacity=".08"/><path d="M 500 0 V 1920" stroke="#6ccbdc" stroke-opacity=".08"/><path d="M 600 0 V 1920" stroke="#6ccbdc" stroke-opacity=".08"/><path d="M 700 0 V 1920" stroke="#6ccbdc" stroke-opacity=".08"/><path d="M 800 0 V 1920" stroke="#6ccbdc" stroke-opacity=".08"/><path d="M 900 0 V 1920" stroke="#6ccbdc" stroke-opacity=".08"/><path d="M 1000 0 V 1920" stroke="#6ccbdc" stroke-opacity=".08"/><rect x="40" y="560" width="1000" height="650" rx="30" fill="#eef3fa" /><rect x="40" y="560" width="1000" height="70" rx="22" fill="#cfdae8" /><text x="75" y="607" fill="#294962" font-size="26" font-weight="600" text-anchor="start" font-family="Source Han Sans CN,PingFang SC,Microsoft YaHei,sans-serif">工作台 / 演示界面</text><rect x="70" y="670" width="230" height="500" rx="14" fill="#e0e9f2" /><text x="100" y="740" fill="#315270" font-size="31" font-weight="600" text-anchor="start" font-family="Source Han Sans CN,PingFang SC,Microsoft YaHei,sans-serif">素材</text><text x="100" y="832" fill="#315270" font-size="31" font-weight="600" text-anchor="start" font-family="Source Han Sans CN,PingFang SC,Microsoft YaHei,sans-serif">制作方案</text><text x="100" y="924" fill="#315270" font-size="31" font-weight="600" text-anchor="start" font-family="Source Han Sans CN,PingFang SC,Microsoft YaHei,sans-serif">预览</text><text x="100" y="1016" fill="#315270" font-size="31" font-weight="600" text-anchor="start" font-family="Source Han Sans CN,PingFang SC,Microsoft YaHei,sans-serif">交付</text><rect x="340" y="700" width="655" height="240" rx="14" fill="#c5ddea" /><text x="665" y="805" fill="#24435a" font-size="45" font-weight="600" text-anchor="middle" font-family="Source Han Sans CN,PingFang SC,Microsoft YaHei,sans-serif">当前操作区域</text><text x="665" y="865" fill="#476a81" font-size="28" font-weight="600" text-anchor="middle" font-family="Source Han Sans CN,PingFang SC,Microsoft YaHei,sans-serif">根据讲解局部放大</text><rect x="720" y="1010" width="240" height="85" rx="16" fill="#225a7d" /><text x="840" y="1065" fill="white" font-size="33" font-weight="600" text-anchor="middle" font-family="Source Han Sans CN,PingFang SC,Microsoft YaHei,sans-serif">查看结果</text><text x="72" y="285" fill="#f4f7ff" font-size="74" font-weight="800" text-anchor="start" font-family="Source Han Sans CN,PingFang SC,Microsoft YaHei,sans-serif">从工具到协作</text><text x="72" y="390" fill="#6ccbdc" font-size="74" font-weight="800" text-anchor="start" font-family="Source Han Sans CN,PingFang SC,Microsoft YaHei,sans-serif">重新理解 AI 产品</text><rect x="138" y="1255" width="804" height="90" rx="12" fill="#6ccbdc" /><text x="540" y="1315" fill="#0b1833" font-size="50" font-weight="600" text-anchor="middle" font-family="Source Han Sans CN,PingFang SC,Microsoft YaHei,sans-serif">这里展示与原声同步的字幕</text><text x="72" y="1845" fill="#f4f7ff" font-size="23" font-weight="400" text-anchor="start" font-family="Source Han Sans CN,PingFang SC,Microsoft YaHei,sans-serif">T10 / 科技演示窗</text><text x="1008" y="1845" fill="#f4f7ff" font-size="23" font-weight="400" text-anchor="end" font-family="Source Han Sans CN,PingFang SC,Microsoft YaHei,sans-serif">版式示例 · 非成片</text></svg>